<svg width="22" height="22" viewBox="0 0 22 22" fill="none" xmlns="http://www.w3.org/2000/svg">
<path fill-rule="evenodd" clip-rule="evenodd" d="M3.9165 3.6665C2.25965 3.6665 0.916504 5.00965 0.916504 6.66651V15.3332C0.916504 16.99 2.25965 18.3332 3.9165 18.3332H18.0832C19.74 18.3332 21.0832 16.99 21.0832 15.3332V6.6665C21.0832 5.00965 19.74 3.6665 18.0832 3.6665H3.9165ZM12.9165 10.9998C12.3642 10.9998 11.9165 11.4476 11.9165 11.9998V15.4998C11.9165 16.0521 12.3642 16.4998 12.9165 16.4998H18.2498C18.8021 16.4998 19.2498 16.0521 19.2498 15.4998V11.9998C19.2498 11.4476 18.8021 10.9998 18.2498 10.9998H12.9165Z" fill="white" fill-opacity="0.88"/>
</svg>
