<svg width="88" height="48" viewBox="0 0 88 48" xmlns="http://www.w3.org/2000/svg">
    <g fill="#000" fill-rule="evenodd">
        <rect fill="#000" x="4" y="4" width="80" height="40" rx="20"/>
        <circle fill="#FFF" cx="24" cy="24" r="12"/>
        <path d="M64 4c11.046 0 20 8.954 20 20s-8.954 20-20 20H24C12.954 44 4 35.046 4 24S12.954 4 24 4h40zm0 2H24C14.059 6 6 14.059 6 24c0 9.764 7.774 17.712 17.47 17.992L24 42h40c9.941 0 18-8.059 18-18 0-9.764-7.774-17.712-17.47-17.992L64 6z" fill="#FFF"/>
        <path d="M64 0H24C10.745 0 0 10.745 0 24s10.745 24 24 24h40c13.255 0 24-10.745 24-24S77.255 0 64 0zm0 4c11.046 0 20 8.954 20 20s-8.954 20-20 20H24C12.954 44 4 35.046 4 24S12.954 4 24 4h40z" />
    </g>
</svg>
