<svg width="22" height="22" viewBox="0 0 22 22" fill="none" xmlns="http://www.w3.org/2000/svg">
<path fill-rule="evenodd" clip-rule="evenodd" d="M0.916667 4.5835C0.916667 3.06471 2.14788 1.8335 3.66667 1.8335H18.3333C19.8521 1.8335 21.0833 3.06471 21.0833 4.5835V13.7502C21.0833 15.2689 19.8521 16.5002 18.3333 16.5002H3.66667C2.14788 16.5002 0.916667 15.2689 0.916667 13.7502V4.5835ZM11.5488 5.48442C11.3971 5.37407 11.2103 5.30894 11.0081 5.30894L10.95 5.31075C10.8533 5.31678 10.7606 5.33775 10.6743 5.37134C10.555 5.41448 10.4445 5.48208 10.3527 5.57413L7.60272 8.32872C7.24339 8.68805 7.24339 9.27105 7.60364 9.63039C7.96297 9.9888 8.54597 9.9888 8.90439 9.62855L10.0861 8.44532L10.0832 12.4058C10.0832 12.9145 10.4948 13.327 11.0036 13.327L11.0617 13.3252C11.5424 13.2952 11.923 12.8959 11.9239 12.4076L11.9265 8.45082L13.1027 9.62855C13.2824 9.80913 13.518 9.89897 13.7536 9.89897C13.9891 9.89897 14.2238 9.80914 14.4035 9.63039C14.7637 9.27105 14.7637 8.68805 14.4044 8.32872L11.6647 5.58438C11.6495 5.5689 11.6338 5.55396 11.6177 5.53948C11.6088 5.53159 11.5997 5.52391 11.5905 5.51657L11.5681 5.49872L11.5488 5.48442Z" fill="white" fill-opacity="0.88"/>
<path d="M0.916667 18.3335C0.410406 18.3335 0 18.7439 0 19.2502C0 19.7564 0.410406 20.1668 0.916667 20.1668H21.0833C21.5896 20.1668 22 19.7564 22 19.2502C22 18.7439 21.5896 18.3335 21.0833 18.3335H0.916667Z" fill="white" fill-opacity="0.88"/>
</svg>
