<svg width="64" height="64" viewBox="0 0 64 64" xmlns="http://www.w3.org/2000/svg">
    <defs>
        <clipPath id="pztz1prfra">
            <path d="M1368 0v1600H0V0h1368z"/>
        </clipPath>
        <clipPath id="fvcnd6vyeb">
            <path d="m4.301.56.251.221L57.35 53.578a2.667 2.667 0 0 1-3.52 3.993l-.252-.221-11.152-11.152a18.602 18.602 0 0 1-9.98 4.739l.012.187v2.667h5.333a2.667 2.667 0 0 1 .31 5.315l-.31.018h-16a2.667 2.667 0 0 1-.311-5.315l.31-.018h5.334v-2.667c0-.063.002-.126.007-.189-8.843-1.26-15.688-8.72-15.996-17.836l-.01-.641v-5.334a2.667 2.667 0 0 1 5.315-.31l.018.31v5.334c0 7.363 5.97 13.333 13.333 13.333 3.4 0 6.504-1.273 8.86-3.37l-3.783-3.781a8 8 0 0 1-13.078-6.182V25.56L.781 4.552A2.667 2.667 0 0 1 4.301.56zm41.49 23.898a2.667 2.667 0 0 1 2.649 2.355l.018.311v5.334c0 1.099-.095 2.176-.278 3.223l-5.056-5.055v-3.502a2.667 2.667 0 0 1 2.667-2.666zm-16-24a8 8 0 0 1 8 8v16.834l-16-16v-.834a8 8 0 0 1 8-8z"/>
        </clipPath>
    </defs>
    <g clip-path="url(#pztz1prfra)" transform="translate(-640 -336)">
        <g clip-path="url(#fvcnd6vyeb)" transform="translate(642.667 338.667)">
            <path d="M0 0h58.13v59.124H0V0z"/>
        </g>
    </g>
</svg>
