<svg width="64" height="64" viewBox="0 0 64 64" xmlns="http://www.w3.org/2000/svg">
    <defs>
        <clipPath id="kbep7n6nba">
            <path d="M1368 0v1600H0V0h1368z"/>
        </clipPath>
        <clipPath id="1la51y0d7b">
            <path d="M34.667 24a2.667 2.667 0 0 1 2.648 2.356l.018.31V32c0 9.408-6.96 17.19-16.01 18.48l.01.187v2.666h5.334a2.667 2.667 0 0 1 .31 5.316l-.31.018h-16a2.667 2.667 0 0 1-.311-5.316l.31-.018H16v-2.666c0-.064.002-.127.007-.19C7.164 49.218.319 41.759.01 32.643L0 32v-5.333a2.667 2.667 0 0 1 5.315-.311l.018.31V32c0 7.364 5.97 13.333 13.334 13.333 7.17 0 13.018-5.66 13.32-12.755L32 32v-5.333A2.667 2.667 0 0 1 34.667 24zm-16-24a8 8 0 0 1 8 8v24a8 8 0 1 1-16 0V8a8 8 0 0 1 8-8z"/>
        </clipPath>
    </defs>
    <g clip-path="url(#kbep7n6nba)" transform="translate(-496 -336)">
        <g clip-path="url(#1la51y0d7b)" transform="translate(509.79 339.124)">
            <path d="M0 0h37.333v58.667H0V0z"/>
        </g>
    </g>
</svg>
