<svg width="64" height="64" viewBox="0 0 64 64" xmlns="http://www.w3.org/2000/svg">
    <defs>
        <clipPath id="59mes75boa">
            <path d="M1368 0v1600H0V0h1368z"/>
        </clipPath>
        <clipPath id="c9mg21y3tb">
            <path d="M26.667 21.333A5.333 5.333 0 0 1 30 30.83v22.297a26.923 26.923 0 0 1-3.323.206h-.02c-1.126 0-2.235-.07-3.324-.206V30.83a5.333 5.333 0 0 1 3.333-9.497zm0-21.333c14.727 0 26.666 11.94 26.666 26.667 0 12.184-8.171 22.46-19.333 25.645V45.28c7.418-2.924 12.667-10.155 12.667-18.612 0-11.046-8.955-20-20-20-11.046 0-20 8.954-20 20 0 8.457 5.249 15.688 12.666 18.612v7.033C8.172 49.127 0 38.851 0 26.667 0 11.939 11.94 0 26.667 0zm0 10.667c8.836 0 16 7.163 16 16 0 6.193-3.52 11.565-8.667 14.224v-8.45a9.294 9.294 0 0 0 2-5.774 9.333 9.333 0 1 0-18.667 0c0 2.18.748 4.185 2 5.774v8.45c-5.147-2.66-8.666-8.03-8.666-14.224 0-8.837 7.163-16 16-16z"/>
        </clipPath>
    </defs>
    <g clip-path="url(#59mes75boa)" transform="translate(-1216 -336)">
        <g clip-path="url(#c9mg21y3tb)" transform="translate(1221.333 341.333)">
            <path fill="rgba(255, 255, 255, 1)" d="M0 0h53.333v53.333H0V0z"/>
        </g>
    </g>
</svg>
